<?xml version="1.0" encoding="UTF-8"?>
<!DOCTYPE svg PUBLIC "-//W3C//DTD SVG 1.1//EN" "http://www.w3.org/Graphics/SVG/1.1/DTD/svg11.dtd">
<svg xmlns="http://www.w3.org/2000/svg" version="1.1" width="681px" height="366px" style="shape-rendering:geometricPrecision; text-rendering:geometricPrecision; image-rendering:optimizeQuality; fill-rule:evenodd; clip-rule:evenodd" xmlns:xlink="http://www.w3.org/1999/xlink">
<g><path style="opacity:0.004" fill="#000000" d="M 539.5,0.5 C 540.833,1.16667 540.833,1.16667 539.5,0.5 Z"/></g>
<g><path style="opacity:0.004" fill="#000000" d="M 191.5,2.5 C 192.833,3.16667 192.833,3.16667 191.5,2.5 Z"/></g>
<g><path style="opacity:0.004" fill="#000000" d="M 383.5,5.5 C 384.833,6.16667 384.833,6.16667 383.5,5.5 Z"/></g>
<g><path style="opacity:0.004" fill="#000000" d="M 395.5,5.5 C 396.833,6.16667 396.833,6.16667 395.5,5.5 Z"/></g>
<g><path style="opacity:0.004" fill="#000000" d="M 539.5,8.5 C 540.833,9.16667 540.833,9.16667 539.5,8.5 Z"/></g>
<g><path style="opacity:0.004" fill="#000000" d="M 659.5,9.5 C 660.833,10.1667 660.833,10.1667 659.5,9.5 Z"/></g>
<g><path style="opacity:0.004" fill="#000000" d="M 278.5,10.5 C 279.833,11.1667 279.833,11.1667 278.5,10.5 Z"/></g>
<g><path style="opacity:0.004" fill="#000000" d="M 53.5,15.5 C 54.8333,16.1667 54.8333,16.1667 53.5,15.5 Z"/></g>
<g><path style="opacity:0.004" fill="#000000" d="M 188.5,15.5 C 189.833,16.1667 189.833,16.1667 188.5,15.5 Z"/></g>
<g><path style="opacity:0.004" fill="#000000" d="M 419.5,16.5 C 420.833,17.1667 420.833,17.1667 419.5,16.5 Z"/></g>
<g><path style="opacity:0.004" fill="#000000" d="M 398.5,18.5 C 399.833,19.1667 399.833,19.1667 398.5,18.5 Z"/></g>
<g><path style="opacity:0.004" fill="#000000" d="M 647.5,18.5 C 648.833,19.1667 648.833,19.1667 647.5,18.5 Z"/></g>
<g><path style="opacity:0.004" fill="#000000" d="M 440.5,23.5 C 441.833,24.1667 441.833,24.1667 440.5,23.5 Z"/></g>
<g><path style="opacity:0.004" fill="#000000" d="M 446.5,28.5 C 447.833,29.1667 447.833,29.1667 446.5,28.5 Z"/></g>
<g><path style="opacity:0.004" fill="#000000" d="M 404.5,46.5 C 405.833,47.1667 405.833,47.1667 404.5,46.5 Z"/></g>
<g><path style="opacity:0.004" fill="#000000" d="M 200.5,48.5 C 201.833,49.1667 201.833,49.1667 200.5,48.5 Z"/></g>
<g><path style="opacity:0.004" fill="#000000" d="M 389.5,54.5 C 390.833,55.1667 390.833,55.1667 389.5,54.5 Z"/></g>
<g><path style="opacity:0.004" fill="#000000" d="M 218.5,62.5 C 219.833,63.1667 219.833,63.1667 218.5,62.5 Z"/></g>
<g><path style="opacity:0.004" fill="#000000" d="M 464.5,67.5 C 465.833,68.1667 465.833,68.1667 464.5,67.5 Z"/></g>
<g><path style="opacity:0.004" fill="#000000" d="M 68.5,75.5 C 69.8333,76.1667 69.8333,76.1667 68.5,75.5 Z"/></g>
<g><path style="opacity:0.004" fill="#000000" d="M 401.5,77.5 C 402.833,78.1667 402.833,78.1667 401.5,77.5 Z"/></g>
<g><path style="opacity:0.004" fill="#000000" d="M 542.5,81.5 C 543.833,82.1667 543.833,82.1667 542.5,81.5 Z"/></g>
<g><path style="opacity:0.004" fill="#000000" d="M 605.5,87.5 C 606.833,88.1667 606.833,88.1667 605.5,87.5 Z"/></g>
<g><path style="opacity:0.004" fill="#000000" d="M 305.5,90.5 C 306.833,91.1667 306.833,91.1667 305.5,90.5 Z"/></g>
<g><path style="opacity:0.004" fill="#000000" d="M 140.5,94.5 C 141.833,95.1667 141.833,95.1667 140.5,94.5 Z"/></g>
<g><path style="opacity:0.004" fill="#000000" d="M 425.5,96.5 C 426.833,97.1667 426.833,97.1667 425.5,96.5 Z"/></g>
<g><path style="opacity:0.004" fill="#000000" d="M 641.5,97.5 C 642.833,98.1667 642.833,98.1667 641.5,97.5 Z"/></g>
<g><path style="opacity:0.004" fill="#000000" d="M 248.5,119.5 C 249.833,120.167 249.833,120.167 248.5,119.5 Z"/></g>
<g><path style="opacity:0.004" fill="#000000" d="M 434.5,121.5 C 435.833,122.167 435.833,122.167 434.5,121.5 Z"/></g>
<g><path style="opacity:0.004" fill="#000000" d="M 263.5,122.5 C 264.833,123.167 264.833,123.167 263.5,122.5 Z"/></g>
<g><path style="opacity:0.004" fill="#000000" d="M 674.5,124.5 C 675.833,125.167 675.833,125.167 674.5,124.5 Z"/></g>
<g><path style="opacity:0.004" fill="#000000" d="M 488.5,127.5 C 489.833,128.167 489.833,128.167 488.5,127.5 Z"/></g>
<g><path style="opacity:0.004" fill="#000000" d="M 17.5,134.5 C 18.8333,135.167 18.8333,135.167 17.5,134.5 Z"/></g>
<g><path style="opacity:0.004" fill="#000000" d="M 461.5,134.5 C 462.833,135.167 462.833,135.167 461.5,134.5 Z"/></g>
<g><path style="opacity:0.004" fill="#000000" d="M 248.5,136.5 C 249.833,137.167 249.833,137.167 248.5,136.5 Z"/></g>
<g><path style="opacity:1" fill="#88b2fb" d="M 334.5,138.5 C 336.017,138.511 337.184,139.177 338,140.5C 339.903,142.441 340.736,144.774 340.5,147.5C 340.794,153.359 339.294,158.693 336,163.5C 335.282,162.549 334.449,162.383 333.5,163C 334.337,164.011 334.67,165.178 334.5,166.5C 332.61,166.703 331.11,166.037 330,164.5C 329.749,166.433 329.249,168.266 328.5,170C 319.817,170.587 311.151,170.42 302.5,169.5C 302.5,168.5 302.5,167.5 302.5,166.5C 298.757,165.466 295.09,164.132 291.5,162.5C 290.824,163.602 290.158,164.602 289.5,165.5C 289.719,164.325 289.386,163.325 288.5,162.5C 286.591,161.652 284.591,161.318 282.5,161.5C 281.207,160.842 279.707,160.508 278,160.5C 275.124,161.273 272.291,161.773 269.5,162C 268.349,159.881 266.849,158.047 265,156.5C 264.333,155.167 264.333,153.833 265,152.5C 267.426,150.548 269.926,148.881 272.5,147.5C 278.524,146.517 283.857,147.85 288.5,151.5C 291.167,150.833 293.833,150.167 296.5,149.5C 296.554,150.53 296.888,151.697 297.5,153C 301.02,155.874 304.853,156.708 309,155.5C 314.73,159.559 320.564,160.392 326.5,158C 326.481,156.479 326.148,154.979 325.5,153.5C 325.5,153.167 325.5,152.833 325.5,152.5C 326.645,151.207 326.311,150.041 324.5,149C 321.571,148.223 318.737,148.39 316,149.5C 315.544,148.256 316.044,147.423 317.5,147C 316.167,146.667 314.833,146.333 313.5,146C 313.833,145.667 314.167,145.333 314.5,145C 313.027,144.29 312.36,143.124 312.5,141.5C 313.5,141.5 314.5,141.5 315.5,141.5C 315.719,140.325 315.386,139.325 314.5,138.5C 311.768,140.546 308.768,141.38 305.5,141C 314.575,134.763 324.075,134.263 334,139.5C 334.399,139.272 334.565,138.938 334.5,138.5 Z M 325.5,152.5 C 325.5,152.833 325.5,153.167 325.5,153.5C 324.09,155.96 321.924,157.293 319,157.5C 317.463,156.886 316.13,156.886 315,157.5C 313.745,156.789 312.579,155.956 311.5,155C 313.699,151.49 316.866,149.656 321,149.5C 323.183,149.522 324.683,150.522 325.5,152.5 Z"/></g>
<g><path style="opacity:1" fill="#728cbc" d="M 132.5,135.5 C 128.486,135.334 124.486,135.501 120.5,136C 114.145,137.678 108.145,140.178 102.5,143.5C 110.982,134.88 120.982,132.214 132.5,135.5 Z"/></g>
<g><path style="opacity:0.004" fill="#000000" d="M 347.5,138.5 C 348.833,139.167 348.833,139.167 347.5,138.5 Z"/></g>
<g><path style="opacity:1" fill="#83a9ed" d="M 414.5,211.5 C 414.213,214.484 412.546,215.817 409.5,215.5C 409.5,213.833 409.5,212.167 409.5,210.5C 409.5,209.5 409.5,208.5 409.5,207.5C 409.714,205.856 409.38,204.356 408.5,203C 409.894,202.044 410.561,200.711 410.5,199C 409.169,196.372 408.336,193.538 408,190.5C 405.797,190.761 403.63,190.261 401.5,189C 400.809,187.933 400.309,186.766 400,185.5C 398.475,186.72 396.641,187.387 394.5,187.5C 392.833,187.167 391.167,186.833 389.5,186.5C 390.348,184.591 390.682,182.591 390.5,180.5C 387.881,180.768 385.381,180.435 383,179.5C 382.833,178.667 382.667,177.833 382.5,177C 384.827,173.534 386.16,169.701 386.5,165.5C 385.448,165.649 384.448,165.483 383.5,165C 385.339,163.868 387.339,163.035 389.5,162.5C 390.604,161.369 390.271,160.535 388.5,160C 390.329,159.727 391.829,158.893 393,157.5C 393.986,158.171 395.153,158.171 396.5,157.5C 398.047,158.022 400.047,158.356 402.5,158.5C 407.112,158.666 410.779,156.999 413.5,153.5C 412.478,150.013 410.145,148.68 406.5,149.5C 403.426,149.873 400.426,150.539 397.5,151.5C 397.67,150.178 397.337,149.011 396.5,148C 392.848,147.111 389.182,146.778 385.5,147C 384.29,148.039 383.29,149.206 382.5,150.5C 377.482,150.613 372.482,150.947 367.5,151.5C 367.286,153.144 367.62,154.644 368.5,156C 366.93,157.836 365.43,157.67 364,155.5C 362.351,156.786 361.185,158.453 360.5,160.5C 364.38,161.795 368.214,161.795 372,160.5C 372.87,161.108 373.37,161.941 373.5,163C 372.313,165.724 371.647,168.557 371.5,171.5C 372.873,171.343 374.207,171.51 375.5,172C 372.849,172.153 370.516,172.987 368.5,174.5C 369.495,171.179 370.495,167.846 371.5,164.5C 367.955,163.209 364.455,163.209 361,164.5C 358.211,159.493 356.711,154.326 356.5,149C 364.807,147.334 373.14,147.001 381.5,148C 389.873,136.953 400.873,132.619 414.5,135C 428.606,140.302 432.606,149.802 426.5,163.5C 424.308,164.859 422.641,166.692 421.5,169C 410.587,174.821 399.587,174.987 388.5,169.5C 387.914,169.709 387.414,170.043 387,170.5C 386.151,173.521 385.317,176.521 384.5,179.5C 400.359,175.184 409.526,181.184 412,197.5C 412,202.833 412,208.167 412,213.5C 412.708,212.619 413.542,211.953 414.5,211.5 Z M 406.5,149.5 C 410.145,148.68 412.478,150.013 413.5,153.5C 410.779,156.999 407.112,158.666 402.5,158.5C 400.622,157.792 398.955,156.626 397.5,155C 400.263,152.626 403.263,150.792 406.5,149.5 Z"/></g>
<g><path style="opacity:1" fill="#7c9ee3" d="M 334.5,138.5 C 334.565,138.938 334.399,139.272 334,139.5C 324.075,134.263 314.575,134.763 305.5,141C 308.768,141.38 311.768,140.546 314.5,138.5C 315.386,139.325 315.719,140.325 315.5,141.5C 314.5,141.5 313.5,141.5 312.5,141.5C 312.36,143.124 313.027,144.29 314.5,145C 314.167,145.333 313.833,145.667 313.5,146C 314.833,146.333 316.167,146.667 317.5,147C 316.044,147.423 315.544,148.256 316,149.5C 318.737,148.39 321.571,148.223 324.5,149C 326.311,150.041 326.645,151.207 325.5,152.5C 324.683,150.522 323.183,149.522 321,149.5C 316.866,149.656 313.699,151.49 311.5,155C 312.579,155.956 313.745,156.789 315,157.5C 316.13,156.886 317.463,156.886 319,157.5C 321.924,157.293 324.09,155.96 325.5,153.5C 326.148,154.979 326.481,156.479 326.5,158C 320.564,160.392 314.73,159.559 309,155.5C 304.853,156.708 301.02,155.874 297.5,153C 296.888,151.697 296.554,150.53 296.5,149.5C 293.833,150.167 291.167,150.833 288.5,151.5C 283.857,147.85 278.524,146.517 272.5,147.5C 275.14,146.579 277.973,145.912 281,145.5C 286.158,146.786 291.325,147.619 296.5,148C 303.343,137.491 313.01,132.825 325.5,134C 329.11,134.472 332.11,135.972 334.5,138.5 Z"/></g>
<g><path style="opacity:1" fill="#6d88d8" d="M 406.5,149.5 C 403.263,150.792 400.263,152.626 397.5,155C 398.955,156.626 400.622,157.792 402.5,158.5C 400.047,158.356 398.047,158.022 396.5,157.5C 395.967,152.777 394.634,152.444 392.5,156.5C 388.471,155.493 385.138,153.493 382.5,150.5C 383.29,149.206 384.29,148.039 385.5,147C 389.182,146.778 392.848,147.111 396.5,148C 397.337,149.011 397.67,150.178 397.5,151.5C 400.426,150.539 403.426,149.873 406.5,149.5 Z"/></g>
<g><path style="opacity:0.004" fill="#000000" d="M 458.5,153.5 C 459.833,154.167 459.833,154.167 458.5,153.5 Z"/></g>
<g><path style="opacity:0.004" fill="#000000" d="M 626.5,157.5 C 627.833,158.167 627.833,158.167 626.5,157.5 Z"/></g>
<g><path style="opacity:1" fill="#84acf1" d="M 564.5,169.5 C 563.167,168.167 561.833,166.833 560.5,165.5C 560.389,164.883 560.056,164.383 559.5,164C 560.793,163.51 562.127,163.343 563.5,163.5C 563.238,164.978 563.571,166.311 564.5,167.5C 565.696,167.154 565.696,166.654 564.5,166C 565.833,165.667 567.167,165.333 568.5,165C 567.663,163.989 567.33,162.822 567.5,161.5C 559.616,160.613 559.616,159.613 567.5,158.5C 568.086,158.709 568.586,159.043 569,159.5C 569.067,156.259 569.567,152.926 570.5,149.5C 566.602,149.585 562.936,149.085 559.5,148C 558.5,149 557.5,150 556.5,151C 559.024,151.882 561.024,153.382 562.5,155.5C 562.019,158.314 560.352,159.648 557.5,159.5C 557.5,160.5 557.5,161.5 557.5,162.5C 556.167,162.5 554.833,162.5 553.5,162.5C 551.951,160.595 550.118,160.261 548,161.5C 547.65,165.533 547.483,169.367 547.5,173C 548.167,173.333 548.833,173.667 549.5,174C 547.975,175.009 546.308,175.509 544.5,175.5C 544.5,177.167 544.5,178.833 544.5,180.5C 543.5,180.5 542.5,180.5 541.5,180.5C 542.762,175.047 544.429,169.714 546.5,164.5C 543.156,163.243 539.823,163.243 536.5,164.5C 534.401,160.034 532.401,155.534 530.5,151C 530.957,150.586 531.291,150.086 531.5,149.5C 538.74,147.328 546.074,146.995 553.5,148.5C 557.251,146.256 560.584,143.423 563.5,140C 578.143,130.286 591.309,131.786 603,144.5C 606.743,162.614 599.243,172.281 580.5,173.5C 574.826,173.038 569.493,171.704 564.5,169.5 Z M 579.5,149.5 C 583.585,148.659 586.585,149.992 588.5,153.5C 586.943,156.877 584.276,158.211 580.5,157.5C 577.989,157.712 575.822,157.045 574,155.5C 572.719,156.647 572.386,156.313 573,154.5C 575.326,152.934 577.492,151.268 579.5,149.5 Z"/></g>
<g><path style="opacity:0.004" fill="#000000" d="M 443.5,160.5 C 444.833,161.167 444.833,161.167 443.5,160.5 Z"/></g>
<g><path style="opacity:1" fill="#7892bd" d="M 272.5,147.5 C 269.926,148.881 267.426,150.548 265,152.5C 264.333,153.833 264.333,155.167 265,156.5C 266.849,158.047 268.349,159.881 269.5,162C 272.291,161.773 275.124,161.273 278,160.5C 279.707,160.508 281.207,160.842 282.5,161.5C 277.439,162.301 272.439,163.301 267.5,164.5C 265.582,160.995 263.916,157.328 262.5,153.5C 264.233,149.118 267.566,147.118 272.5,147.5 Z"/></g>
<g><path style="opacity:1" fill="#799aee" d="M 560.5,165.5 C 560.795,167.735 560.461,169.735 559.5,171.5C 555.965,170.735 552.631,169.401 549.5,167.5C 548.948,165.997 548.948,164.331 549.5,162.5C 550.833,162.5 552.167,162.5 553.5,162.5C 554.833,162.5 556.167,162.5 557.5,162.5C 557.5,161.5 557.5,160.5 557.5,159.5C 560.352,159.648 562.019,158.314 562.5,155.5C 561.024,153.382 559.024,151.882 556.5,151C 557.5,150 558.5,149 559.5,148C 562.936,149.085 566.602,149.585 570.5,149.5C 569.567,152.926 569.067,156.259 569,159.5C 568.586,159.043 568.086,158.709 567.5,158.5C 559.616,159.613 559.616,160.613 567.5,161.5C 567.33,162.822 567.663,163.989 568.5,165C 567.167,165.333 565.833,165.667 564.5,166C 565.696,166.654 565.696,167.154 564.5,167.5C 563.571,166.311 563.238,164.978 563.5,163.5C 562.127,163.343 560.793,163.51 559.5,164C 560.056,164.383 560.389,164.883 560.5,165.5 Z"/></g>
<g><path style="opacity:1" fill="#7793c8" d="M 340.5,147.5 C 342.724,155.594 340.724,162.594 334.5,168.5C 325.137,173.928 315.471,174.595 305.5,170.5C 303.712,171.437 302.379,172.77 301.5,174.5C 301.216,172.585 301.549,170.919 302.5,169.5C 311.151,170.42 319.817,170.587 328.5,170C 329.249,168.266 329.749,166.433 330,164.5C 331.11,166.037 332.61,166.703 334.5,166.5C 334.67,165.178 334.337,164.011 333.5,163C 334.449,162.383 335.282,162.549 336,163.5C 339.294,158.693 340.794,153.359 340.5,147.5 Z"/></g>
<g><path style="opacity:1" fill="#708de5" d="M 302.5,169.5 C 301.549,170.919 301.216,172.585 301.5,174.5C 297.126,176.43 293.626,175.43 291,171.5C 290.586,171.957 290.086,172.291 289.5,172.5C 288.425,170.189 288.425,167.856 289.5,165.5C 290.158,164.602 290.824,163.602 291.5,162.5C 295.09,164.132 298.757,165.466 302.5,166.5C 302.5,167.5 302.5,168.5 302.5,169.5 Z"/></g>
<g><path style="opacity:1" fill="#85adf2" d="M 132.5,135.5 C 149.7,140.453 154.867,151.453 148,168.5C 142.262,175.204 135.095,177.204 126.5,174.5C 128.065,170.313 128.732,165.98 128.5,161.5C 133.181,161.124 134.515,158.791 132.5,154.5C 120.589,148.538 114.422,152.205 114,165.5C 115.271,168.433 116.938,171.099 119,173.5C 125.561,179.64 131.895,185.973 138,192.5C 140.694,196.879 142.527,201.546 143.5,206.5C 143.5,208.5 143.5,210.5 143.5,212.5C 145.167,212.5 146.833,212.5 148.5,212.5C 146.735,213.461 144.735,213.795 142.5,213.5C 142.345,209.371 141.512,205.371 140,201.5C 139.612,202.428 138.945,203.095 138,203.5C 133.859,202.104 129.692,200.771 125.5,199.5C 124.702,199.957 124.369,200.624 124.5,201.5C 122.926,199.898 122.259,197.898 122.5,195.5C 116.848,194.684 113.182,191.518 111.5,186C 110.207,185.51 108.873,185.343 107.5,185.5C 105.983,185.489 104.816,184.823 104,183.5C 96.5819,173.583 94.5819,162.583 98,150.5C 99.5106,148.138 101.011,145.805 102.5,143.5C 108.145,140.178 114.145,137.678 120.5,136C 124.486,135.501 128.486,135.334 132.5,135.5 Z"/></g>
<g><path style="opacity:1" fill="#84acf5" d="M 382.5,150.5 C 385.138,153.493 388.471,155.493 392.5,156.5C 394.634,152.444 395.967,152.777 396.5,157.5C 395.153,158.171 393.986,158.171 393,157.5C 391.829,158.893 390.329,159.727 388.5,160C 390.271,160.535 390.604,161.369 389.5,162.5C 387.339,163.035 385.339,163.868 383.5,165C 384.448,165.483 385.448,165.649 386.5,165.5C 386.16,169.701 384.827,173.534 382.5,177C 382.667,177.833 382.833,178.667 383,179.5C 385.381,180.435 387.881,180.768 390.5,180.5C 390.682,182.591 390.348,184.591 389.5,186.5C 391.167,186.833 392.833,187.167 394.5,187.5C 396.641,187.387 398.475,186.72 400,185.5C 400.309,186.766 400.809,187.933 401.5,189C 403.63,190.261 405.797,190.761 408,190.5C 408.336,193.538 409.169,196.372 410.5,199C 410.561,200.711 409.894,202.044 408.5,203C 409.38,204.356 409.714,205.856 409.5,207.5C 408.735,206.34 407.735,205.34 406.5,204.5C 402.56,206.236 400.893,204.903 401.5,200.5C 400.167,200.5 398.833,200.5 397.5,200.5C 400.018,198.643 400.018,196.81 397.5,195C 399.155,193.556 399.822,191.722 399.5,189.5C 397.208,189.756 395.041,189.423 393,188.5C 389.803,189.333 387.303,190.999 385.5,193.5C 387.05,190.033 387.884,186.699 388,183.5C 385.592,181.376 383.092,181.543 380.5,184C 377.957,190.672 375.957,197.505 374.5,204.5C 373.539,206.265 373.205,208.265 373.5,210.5C 372.522,210.189 371.855,209.522 371.5,208.5C 372.214,205.197 371.047,205.197 368,208.5C 367.576,206.385 366.409,205.552 364.5,206C 364.833,206.333 365.167,206.667 365.5,207C 364.279,212.652 362.446,212.819 360,207.5C 359.164,212.824 357.498,217.824 355,222.5C 351.513,225.98 348.847,229.98 347,234.5C 345.989,235.337 344.822,235.67 343.5,235.5C 343.745,230.946 343.412,226.446 342.5,222C 342.903,220.527 343.57,219.194 344.5,218C 344.167,217.667 343.833,217.333 343.5,217C 344.931,215.438 346.431,213.938 348,212.5C 348.498,209.183 348.665,205.85 348.5,202.5C 349.5,202.5 350.5,202.5 351.5,202.5C 351.595,200.214 352.262,198.214 353.5,196.5C 351.382,206.995 348.715,216.995 345.5,226.5C 345.667,227.167 345.833,227.833 346,228.5C 351.488,223.533 355.488,217.533 358,210.5C 360.831,198.188 364.331,186.188 368.5,174.5C 370.516,172.987 372.849,172.153 375.5,172C 374.207,171.51 372.873,171.343 371.5,171.5C 371.647,168.557 372.313,165.724 373.5,163C 373.37,161.941 372.87,161.108 372,160.5C 368.214,161.795 364.38,161.795 360.5,160.5C 361.185,158.453 362.351,156.786 364,155.5C 365.43,157.67 366.93,157.836 368.5,156C 367.62,154.644 367.286,153.144 367.5,151.5C 372.482,150.947 377.482,150.613 382.5,150.5 Z"/></g>
<g><path style="opacity:0.004" fill="#000000" d="M 650.5,175.5 C 651.833,176.167 651.833,176.167 650.5,175.5 Z"/></g>
<g><path style="opacity:0.004" fill="#000000" d="M 464.5,176.5 C 465.833,177.167 465.833,177.167 464.5,176.5 Z"/></g>
<g><path style="opacity:0.286" fill="#718dbe" d="M 236.5,191.5 C 236.211,187.894 236.544,184.394 237.5,181C 232.845,180.501 228.179,180.334 223.5,180.5C 223.98,187.194 221.98,192.861 217.5,197.5C 219.542,191.966 221.209,186.3 222.5,180.5C 228.128,179.505 233.794,179.171 239.5,179.5C 238.49,183.614 237.49,187.614 236.5,191.5 Z"/></g>
<g><path style="opacity:0.306" fill="#6c84af" d="M 322.5,186.5 C 322.5,184.5 322.5,182.5 322.5,180.5C 317.786,180.173 313.12,180.507 308.5,181.5C 306.276,186.948 304.943,192.615 304.5,198.5C 304.253,199.713 303.586,200.38 302.5,200.5C 303.224,193.605 304.891,186.938 307.5,180.5C 313.128,179.505 318.794,179.171 324.5,179.5C 324.59,182.152 323.924,184.485 322.5,186.5 Z"/></g>
<g><path style="opacity:0.992" fill="#748abc" d="M 560.5,165.5 C 561.833,166.833 563.167,168.167 564.5,169.5C 563.25,169.577 562.417,170.244 562,171.5C 560.361,174.742 559.361,178.076 559,181.5C 566.39,177.705 573.89,177.539 581.5,181C 588.31,189.814 587.976,198.314 580.5,206.5C 580.079,203.343 581.245,201.01 584,199.5C 586.819,184.49 580.653,178.156 565.5,180.5C 563.597,180.796 561.93,181.463 560.5,182.5C 559.5,182.5 558.5,182.5 557.5,182.5C 557.848,178.742 558.515,175.076 559.5,171.5C 560.461,169.735 560.795,167.735 560.5,165.5 Z"/></g>
<g><path style="opacity:1" fill="#85aff7" d="M 236.5,191.5 C 233.988,202.229 231.154,212.895 228,223.5C 227.333,225.5 227.333,227.5 228,229.5C 235.031,221.47 239.698,212.137 242,201.5C 244.727,193.663 249.561,187.663 256.5,183.5C 259.226,183.736 261.559,182.903 263.5,181C 268.167,180.333 272.833,180.333 277.5,181C 275.277,181.652 274.11,183.152 274,185.5C 271.618,184.134 269.452,184.467 267.5,186.5C 269.149,187.988 271.149,188.988 273.5,189.5C 273.023,190.478 272.357,191.311 271.5,192C 268.824,192.74 266.158,193.073 263.5,193C 264.336,191.757 264.003,190.59 262.5,189.5C 261.575,190.641 260.741,190.641 260,189.5C 259.202,191.259 259.369,192.926 260.5,194.5C 263.187,193.939 263.187,194.606 260.5,196.5C 259.914,196.291 259.414,195.957 259,195.5C 258.405,196.899 258.572,198.232 259.5,199.5C 257.73,200.82 257.397,202.32 258.5,204C 254.457,208.646 252.791,214.146 253.5,220.5C 253.575,226.927 256.575,229.594 262.5,228.5C 264.991,228.171 267.157,227.171 269,225.5C 269.163,227.387 268.329,228.887 266.5,230C 268.267,232.544 269.934,235.044 271.5,237.5C 270.665,238.943 269.332,239.943 267.5,240.5C 264.167,241.5 260.834,242.5 257.5,243.5C 256.749,242.624 256.249,241.624 256,240.5C 252.2,241.729 248.367,241.729 244.5,240.5C 244.5,238.833 244.5,237.167 244.5,235.5C 241.821,235.673 239.487,236.673 237.5,238.5C 234.679,237.006 233.679,237.672 234.5,240.5C 233.975,241.192 233.308,241.692 232.5,242C 228.459,242.827 224.459,242.66 220.5,241.5C 218.167,239.333 215.833,237.167 213.5,235C 210.808,234.57 208.141,234.737 205.5,235.5C 205.477,233.4 206.144,231.567 207.5,230C 206.691,228.216 206.024,226.383 205.5,224.5C 206.857,222.814 208.19,221.148 209.5,219.5C 209.334,223.514 209.501,227.514 210,231.5C 211,232.833 212,232.833 213,231.5C 213.408,223.294 214.908,215.294 217.5,207.5C 217.561,205.279 216.895,204.946 215.5,206.5C 215.5,205.833 215.5,205.167 215.5,204.5C 215.394,201.921 216.061,199.588 217.5,197.5C 221.98,192.861 223.98,187.194 223.5,180.5C 228.179,180.334 232.845,180.501 237.5,181C 236.544,184.394 236.211,187.894 236.5,191.5 Z"/></g>
<g><path style="opacity:0.004" fill="#000000" d="M 20.5,183.5 C 21.8333,184.167 21.8333,184.167 20.5,183.5 Z"/></g>
<g><path style="opacity:1" fill="#83a9ec" d="M 215.5,204.5 C 215.5,205.167 215.5,205.833 215.5,206.5C 213.878,211.042 211.878,215.376 209.5,219.5C 208.19,221.148 206.857,222.814 205.5,224.5C 206.024,226.383 206.691,228.216 207.5,230C 206.144,231.567 205.477,233.4 205.5,235.5C 208.141,234.737 210.808,234.57 213.5,235C 215.833,237.167 218.167,239.333 220.5,241.5C 224.459,242.66 228.459,242.827 232.5,242C 233.308,241.692 233.975,241.192 234.5,240.5C 233.679,237.672 234.679,237.006 237.5,238.5C 239.487,236.673 241.821,235.673 244.5,235.5C 244.5,237.167 244.5,238.833 244.5,240.5C 243.542,240.047 242.708,239.381 242,238.5C 230.601,248.805 220.601,247.805 212,235.5C 202.712,245.796 192.212,247.463 180.5,240.5C 172.087,246.418 163.587,246.752 155,241.5C 152.137,237.62 150.97,233.287 151.5,228.5C 147.481,228.354 143.481,228.021 139.5,227.5C 143.298,226.517 147.298,226.183 151.5,226.5C 151.281,225.325 151.614,224.325 152.5,223.5C 153.522,226.441 154.355,229.441 155,232.5C 155.414,232.957 155.914,233.291 156.5,233.5C 156.911,232.738 157.077,231.738 157,230.5C 158.902,231.386 160.735,231.053 162.5,229.5C 161.911,227.519 162.245,225.519 163.5,223.5C 164.268,224.263 164.768,225.263 165,226.5C 165.333,226.167 165.667,225.833 166,225.5C 166.494,227.134 166.66,228.801 166.5,230.5C 167.791,230.737 168.791,230.404 169.5,229.5C 173.106,225.306 176.272,220.64 179,215.5C 181.678,205.122 184.511,194.789 187.5,184.5C 183.979,183.146 180.646,183.48 177.5,185.5C 177.33,184.178 177.663,183.011 178.5,182C 180.167,181.667 181.833,181.333 183.5,181C 183.167,180.667 182.833,180.333 182.5,180C 184.333,177.5 186.167,175 188,172.5C 189.676,173.061 191.009,174.061 192,175.5C 192.494,173.866 192.66,172.199 192.5,170.5C 189.091,170.751 185.758,170.417 182.5,169.5C 178.516,172.612 174.516,173.279 170.5,171.5C 173.768,170.513 177.102,170.18 180.5,170.5C 180.663,167.126 180.663,164.126 180.5,161.5C 176.893,160.511 173.226,160.177 169.5,160.5C 169.429,163.311 168.762,165.978 167.5,168.5C 167.608,169.442 167.941,170.275 168.5,171C 164.403,169.795 160.069,169.295 155.5,169.5C 158.625,168.521 161.958,168.187 165.5,168.5C 165.998,165.171 166.998,162.005 168.5,159C 174.196,158.17 179.863,158.337 185.5,159.5C 184.727,162.431 183.727,165.264 182.5,168C 186.612,168.265 190.946,168.431 195.5,168.5C 194.801,172.096 193.801,175.596 192.5,179C 196.821,179.499 201.154,179.666 205.5,179.5C 203.112,190.267 200.279,200.934 197,211.5C 195.282,217.411 194.616,223.411 195,229.5C 198.91,227.593 202.244,224.927 205,221.5C 208.784,215.941 212.284,210.274 215.5,204.5 Z"/></g>
<g><path style="opacity:1" fill="#87b0f9" d="M 521.5,180.5 C 522.474,182.82 523.474,185.153 524.5,187.5C 524.43,188.772 524.097,189.938 523.5,191C 527.419,196.261 527.085,201.427 522.5,206.5C 522.167,206.167 521.833,205.833 521.5,205.5C 522.589,202.034 522.089,198.367 520,194.5C 518.667,195.167 517.667,196.167 517,197.5C 515.989,196.663 514.822,196.33 513.5,196.5C 513.975,193.677 512.975,191.677 510.5,190.5C 508.962,190.453 507.962,191.12 507.5,192.5C 506.432,193.434 505.099,193.768 503.5,193.5C 503.787,189.474 504.787,185.641 506.5,182C 502.546,182.221 499.046,183.721 496,186.5C 493.629,194.612 491.463,202.779 489.5,211C 489.594,213.954 490.094,214.121 491,211.5C 491.384,213.197 491.218,214.863 490.5,216.5C 489.685,217.429 488.852,218.429 488,219.5C 487.47,224.42 486.137,229.087 484,233.5C 483.617,232.944 483.117,232.611 482.5,232.5C 481.861,231.903 481.528,231.07 481.5,230C 482.805,228.244 483.472,226.577 483.5,225C 482.552,224.517 481.552,224.351 480.5,224.5C 480.738,220.901 479.738,220.567 477.5,223.5C 476.476,222.148 475.476,220.815 474.5,219.5C 478.302,209.28 480.636,198.613 481.5,187.5C 481.756,185.063 482.423,182.729 483.5,180.5C 489.388,179.193 495.221,179.193 501,180.5C 507.907,176.882 514.74,176.882 521.5,180.5 Z"/></g>
<g><path style="opacity:1" fill="#728fc0" d="M 353.5,196.5 C 353.335,193.482 353.502,190.482 354,187.5C 355.411,185.35 356.245,183.016 356.5,180.5C 351.833,180.5 347.167,180.5 342.5,180.5C 342.913,183.32 341.913,185.32 339.5,186.5C 339.665,184.173 340.331,182.007 341.5,180C 347.196,179.17 352.863,179.337 358.5,180.5C 356.618,185.896 354.951,191.229 353.5,196.5 Z"/></g>
<g><path style="opacity:1" fill="#83aaef" d="M 282.5,161.5 C 284.591,161.318 286.591,161.652 288.5,162.5C 289.386,163.325 289.719,164.325 289.5,165.5C 288.425,167.856 288.425,170.189 289.5,172.5C 290.086,172.291 290.586,171.957 291,171.5C 293.626,175.43 297.126,176.43 301.5,174.5C 296.914,191.091 292.581,207.758 288.5,224.5C 288.667,225.833 288.833,227.167 289,228.5C 292.74,224.689 295.74,220.356 298,215.5C 298.627,210.129 300.127,205.129 302.5,200.5C 303.586,200.38 304.253,199.713 304.5,198.5C 304.943,192.615 306.276,186.948 308.5,181.5C 313.12,180.507 317.786,180.173 322.5,180.5C 322.5,182.5 322.5,184.5 322.5,186.5C 320.1,198.104 317.1,209.438 313.5,220.5C 312.079,223.294 311.079,226.294 310.5,229.5C 312.903,229.552 315.236,229.219 317.5,228.5C 317.92,230.094 318.586,231.594 319.5,233C 317.938,235.792 317.605,238.625 318.5,241.5C 320.042,240.253 321.542,240.253 323,241.5C 325.393,239.006 326.56,239.673 326.5,243.5C 326.217,244.289 325.717,244.956 325,245.5C 323.091,245.327 321.257,244.993 319.5,244.5C 319.167,243.167 318.833,243.167 318.5,244.5C 316.358,246.662 313.691,247.662 310.5,247.5C 311.263,246.732 312.263,246.232 313.5,246C 308.209,245.586 303.542,243.753 299.5,240.5C 290.342,247.777 281.842,247.11 274,238.5C 266.696,244.369 258.53,246.202 249.5,244C 247.416,243.303 245.749,242.136 244.5,240.5C 248.367,241.729 252.2,241.729 256,240.5C 256.249,241.624 256.749,242.624 257.5,243.5C 260.834,242.5 264.167,241.5 267.5,240.5C 269.332,239.943 270.665,238.943 271.5,237.5C 272.172,236.733 273.005,236.066 274,235.5C 274.663,226.737 275.163,218.07 275.5,209.5C 276.756,205.913 277.256,202.246 277,198.5C 273.215,193.49 268.882,193.157 264,197.5C 258.85,204.473 255.35,212.139 253.5,220.5C 252.791,214.146 254.457,208.646 258.5,204C 257.397,202.32 257.73,200.82 259.5,199.5C 258.572,198.232 258.405,196.899 259,195.5C 259.414,195.957 259.914,196.291 260.5,196.5C 263.187,194.606 263.187,193.939 260.5,194.5C 259.369,192.926 259.202,191.259 260,189.5C 260.741,190.641 261.575,190.641 262.5,189.5C 264.003,190.59 264.336,191.757 263.5,193C 266.158,193.073 268.824,192.74 271.5,192C 272.357,191.311 273.023,190.478 273.5,189.5C 271.149,188.988 269.149,187.988 267.5,186.5C 269.452,184.467 271.618,184.134 274,185.5C 274.11,183.152 275.277,181.652 277.5,181C 272.833,180.333 268.167,180.333 263.5,181C 261.559,182.903 259.226,183.736 256.5,183.5C 258.675,180.522 261.675,179.022 265.5,179C 271.169,178.097 276.669,178.597 282,180.5C 284.358,175.096 286.525,169.596 288.5,164C 286.277,163.434 284.277,162.6 282.5,161.5 Z"/></g>
<g><path style="opacity:1" fill="#6a87df" d="M 385.5,193.5 C 382.401,194.634 379.901,196.634 378,199.5C 377.51,200.793 377.343,202.127 377.5,203.5C 376.391,203.557 375.391,203.89 374.5,204.5C 375.957,197.505 377.957,190.672 380.5,184C 383.092,181.543 385.592,181.376 388,183.5C 387.884,186.699 387.05,190.033 385.5,193.5 Z"/></g>
<g><path style="opacity:1" fill="#83abf1" d="M 466.5,213.5 C 466.261,209.158 465.927,204.824 465.5,200.5C 462.627,198.927 459.961,199.26 457.5,201.5C 458.59,202.609 458.59,203.609 457.5,204.5C 456.808,203.975 456.308,203.308 456,202.5C 455.215,204.286 454.049,205.786 452.5,207C 453.907,209.785 453.574,212.285 451.5,214.5C 450.59,216.019 449.757,217.685 449,219.5C 448.184,220.823 447.017,221.489 445.5,221.5C 444.996,225.199 443.33,228.365 440.5,231C 442.314,233.481 442.98,236.315 442.5,239.5C 445.586,239.401 447.919,238.068 449.5,235.5C 450.058,236.79 451.058,237.623 452.5,238C 452.167,238.333 451.833,238.667 451.5,239C 452.381,239.708 453.047,240.542 453.5,241.5C 451.616,241.288 450.283,240.288 449.5,238.5C 439.918,246.692 429.918,247.358 419.5,240.5C 417.436,237.539 415.769,234.372 414.5,231C 411.354,231.547 408.354,231.381 405.5,230.5C 404.432,229.566 403.099,229.232 401.5,229.5C 398.75,226.945 395.75,224.612 392.5,222.5C 388.283,224.091 385.95,227.091 385.5,231.5C 388.272,231.595 390.272,232.929 391.5,235.5C 392.417,236.127 393.417,236.461 394.5,236.5C 394.144,237.87 393.31,238.87 392,239.5C 388.307,241.099 384.807,242.766 381.5,244.5C 373.376,245.707 366.543,243.041 361,236.5C 358.491,238.648 355.991,240.648 353.5,242.5C 353.5,242.167 353.5,241.833 353.5,241.5C 353.586,240.504 353.252,239.671 352.5,239C 355.245,238.947 357.245,237.78 358.5,235.5C 360.635,234.355 362.801,234.355 365,235.5C 366.261,235.241 367.261,234.574 368,233.5C 368.333,233.833 368.667,234.167 369,234.5C 369.309,233.234 369.809,232.067 370.5,231C 368.291,230.043 368.457,228.876 371,227.5C 371.835,221.823 372.669,216.156 373.5,210.5C 373.205,208.265 373.539,206.265 374.5,204.5C 375.391,203.89 376.391,203.557 377.5,203.5C 377.343,202.127 377.51,200.793 378,199.5C 379.901,196.634 382.401,194.634 385.5,193.5C 387.303,190.999 389.803,189.333 393,188.5C 395.041,189.423 397.208,189.756 399.5,189.5C 399.822,191.722 399.155,193.556 397.5,195C 400.018,196.81 400.018,198.643 397.5,200.5C 397.335,203.85 397.502,207.183 398,210.5C 402.763,218.237 406.597,218.237 409.5,210.5C 409.5,212.167 409.5,213.833 409.5,215.5C 412.546,215.817 414.213,214.484 414.5,211.5C 417.646,199.379 423.98,189.379 433.5,181.5C 441.583,177.089 449.75,176.755 458,180.5C 463.741,179.525 469.575,179.192 475.5,179.5C 473.275,191.153 470.275,202.486 466.5,213.5 Z M 377.5,203.5 C 380.599,198.908 384.766,195.575 390,193.5C 395.884,195.677 397.55,199.677 395,205.5C 389.796,209.444 387.963,214.611 389.5,221C 386.074,227.32 381.241,229.154 375,226.5C 374.094,224.256 373.594,221.923 373.5,219.5C 374.257,213.998 375.59,208.664 377.5,203.5 Z M 445.5,221.5 C 442.9,225.231 439.4,227.898 435,229.5C 431.455,228.067 429.622,225.4 429.5,221.5C 430.96,212.266 434.626,204.1 440.5,197C 446.717,192.702 451.051,194.035 453.5,201C 451.505,208.161 448.839,214.994 445.5,221.5 Z"/></g>
<g><path style="opacity:1" fill="#6881dd" d="M 455.5,183.5 C 457.635,183.147 458.968,183.98 459.5,186C 458.376,190.35 456.876,194.516 455,198.5C 453.733,195.725 452.233,193.059 450.5,190.5C 451.325,189.614 452.325,189.281 453.5,189.5C 453.253,187.142 453.919,185.142 455.5,183.5 Z"/></g>
<g><path style="opacity:1" fill="#83aaf1" d="M 177.5,185.5 C 174.178,199.141 170.844,212.808 167.5,226.5C 167.64,228.03 168.307,229.03 169.5,229.5C 168.791,230.404 167.791,230.737 166.5,230.5C 166.66,228.801 166.494,227.134 166,225.5C 165.667,225.833 165.333,226.167 165,226.5C 164.768,225.263 164.268,224.263 163.5,223.5C 161.823,220.908 160.657,217.908 160,214.5C 158.419,216.575 156.585,216.575 154.5,214.5C 154.709,213.914 155.043,213.414 155.5,213C 153.866,212.506 152.199,212.34 150.5,212.5C 151.167,211.833 151.833,211.167 152.5,210.5C 153.117,210.389 153.617,210.056 154,209.5C 156.737,201.046 159.237,192.546 161.5,184C 158.183,183.502 154.85,183.335 151.5,183.5C 152.626,178.678 153.96,174.011 155.5,169.5C 160.069,169.295 164.403,169.795 168.5,171C 167.941,170.275 167.608,169.442 167.5,168.5C 168.762,165.978 169.429,163.311 169.5,160.5C 173.226,160.177 176.893,160.511 180.5,161.5C 180.663,164.126 180.663,167.126 180.5,170.5C 177.102,170.18 173.768,170.513 170.5,171.5C 174.516,173.279 178.516,172.612 182.5,169.5C 185.758,170.417 189.091,170.751 192.5,170.5C 192.66,172.199 192.494,173.866 192,175.5C 191.009,174.061 189.676,173.061 188,172.5C 186.167,175 184.333,177.5 182.5,180C 182.833,180.333 183.167,180.667 183.5,181C 181.833,181.333 180.167,181.667 178.5,182C 177.663,183.011 177.33,184.178 177.5,185.5 Z"/></g>
<g><path style="opacity:1" fill="#6982de" d="M 163.5,181.5 C 167.833,181.5 172.167,181.5 176.5,181.5C 176.239,186.268 174.072,189.935 170,192.5C 169.517,191.552 169.351,190.552 169.5,189.5C 167.409,189.318 165.409,189.652 163.5,190.5C 162.259,187.463 162.259,184.463 163.5,181.5 Z"/></g>
<g><path style="opacity:1" fill="#6a83d6" d="M 507.5,192.5 C 508.833,192.5 510.167,192.5 511.5,192.5C 511.5,194.167 511.5,195.833 511.5,197.5C 510.839,196.282 510.172,194.949 509.5,193.5C 505.29,195.208 501.79,197.874 499,201.5C 496.125,206.595 493.292,211.595 490.5,216.5C 491.218,214.863 491.384,213.197 491,211.5C 490.094,214.121 489.594,213.954 489.5,211C 491.463,202.779 493.629,194.612 496,186.5C 499.046,183.721 502.546,182.221 506.5,182C 504.787,185.641 503.787,189.474 503.5,193.5C 505.099,193.768 506.432,193.434 507.5,192.5 Z"/></g>
<g><path style="opacity:1" fill="#7894c9" d="M 107.5,185.5 C 108.873,185.343 110.207,185.51 111.5,186C 113.182,191.518 116.848,194.684 122.5,195.5C 122.259,197.898 122.926,199.898 124.5,201.5C 125.391,202.261 126.058,203.261 126.5,204.5C 126.043,205.298 125.376,205.631 124.5,205.5C 123.178,205.33 122.011,205.663 121,206.5C 110.74,201.933 99.9069,200.266 88.5,201.5C 96.3225,200.344 104.323,200.177 112.5,201C 115.871,202.068 119.204,203.235 122.5,204.5C 123.59,203.609 123.59,202.609 122.5,201.5C 116.751,196.755 111.751,191.422 107.5,185.5 Z"/></g>
<g><path style="opacity:1" fill="#7289c1" d="M 339.5,189.5 C 339.252,193.757 338.252,197.757 336.5,201.5C 334.426,206.647 332.093,211.647 329.5,216.5C 326.475,221.525 322.475,225.525 317.5,228.5C 315.236,229.219 312.903,229.552 310.5,229.5C 311.079,226.294 312.079,223.294 313.5,220.5C 313.051,223.29 313.051,225.956 313.5,228.5C 319.863,224.304 325.03,218.97 329,212.5C 332.805,204.892 336.305,197.226 339.5,189.5 Z"/></g>
<g><path style="opacity:1" fill="#85adf3" d="M 553.5,162.5 C 552.167,162.5 550.833,162.5 549.5,162.5C 548.948,164.331 548.948,165.997 549.5,167.5C 552.631,169.401 555.965,170.735 559.5,171.5C 558.515,175.076 557.848,178.742 557.5,182.5C 558.5,182.5 559.5,182.5 560.5,182.5C 558.238,183.896 556.071,185.563 554,187.5C 551.162,198.506 548.329,209.506 545.5,220.5C 546.378,224.589 547.545,228.589 549,232.5C 550.11,234.037 551.61,234.703 553.5,234.5C 552.833,232.167 552.167,229.833 551.5,227.5C 554.044,227.896 556.211,227.229 558,225.5C 558.054,222.135 557.554,218.801 556.5,215.5C 557.162,212.532 557.495,209.532 557.5,206.5C 555.131,206.851 552.797,207.018 550.5,207C 551.399,205.348 552.399,203.848 553.5,202.5C 553.5,203.5 553.5,204.5 553.5,205.5C 555.807,205.014 557.973,205.014 560,205.5C 560.662,204.016 561.496,202.683 562.5,201.5C 563.514,200.326 564.847,199.66 566.5,199.5C 569.518,198.145 570.851,195.812 570.5,192.5C 567.467,192.132 564.8,192.798 562.5,194.5C 562.5,193.5 562.5,192.5 562.5,191.5C 563.833,191.5 565.167,191.5 566.5,191.5C 566.277,189.658 565.943,187.825 565.5,186C 565.439,184.289 566.106,182.956 567.5,182C 566.584,181.722 565.918,181.222 565.5,180.5C 580.653,178.156 586.819,184.49 584,199.5C 581.245,201.01 580.079,203.343 580.5,206.5C 577.981,209.447 574.981,211.947 571.5,214C 567.29,215.623 563.29,217.623 559.5,220C 560.94,224.608 563.94,227.774 568.5,229.5C 576.897,226.01 582.564,220.01 585.5,211.5C 586.85,210.517 587.85,209.184 588.5,207.5C 592.138,208.247 595.805,208.914 599.5,209.5C 600.713,209.747 601.38,210.414 601.5,211.5C 598.292,222.407 592.626,231.907 584.5,240C 574.153,247.226 563.82,247.226 553.5,240C 550.814,236.397 547.814,233.231 544.5,230.5C 542.665,231.122 541.498,232.456 541,234.5C 540.503,237.146 540.336,239.813 540.5,242.5C 531.491,242.626 522.491,242.959 513.5,243.5C 508.894,242.363 506.06,239.363 505,234.5C 504.333,229.5 504.333,224.5 505,219.5C 507.687,212.277 509.854,204.944 511.5,197.5C 511.5,195.833 511.5,194.167 511.5,192.5C 510.167,192.5 508.833,192.5 507.5,192.5C 507.962,191.12 508.962,190.453 510.5,190.5C 512.975,191.677 513.975,193.677 513.5,196.5C 514.822,196.33 515.989,196.663 517,197.5C 517.667,196.167 518.667,195.167 520,194.5C 522.089,198.367 522.589,202.034 521.5,205.5C 521.833,205.833 522.167,206.167 522.5,206.5C 527.085,201.427 527.419,196.261 523.5,191C 524.097,189.938 524.43,188.772 524.5,187.5C 523.474,185.153 522.474,182.82 521.5,180.5C 525.818,184.24 528.151,189.074 528.5,195C 526.96,206.118 524.293,216.952 520.5,227.5C 520.808,228.308 521.308,228.975 522,229.5C 525.147,226.532 527.814,223.198 530,219.5C 534.035,206.437 537.869,193.437 541.5,180.5C 542.5,180.5 543.5,180.5 544.5,180.5C 544.5,178.833 544.5,177.167 544.5,175.5C 546.308,175.509 547.975,175.009 549.5,174C 548.833,173.667 548.167,173.333 547.5,173C 547.483,169.367 547.65,165.533 548,161.5C 550.118,160.261 551.951,160.595 553.5,162.5 Z M 566.5,199.5 C 564.847,199.66 563.514,200.326 562.5,201.5C 560.685,202.63 558.685,203.296 556.5,203.5C 559.61,198.894 563.777,195.561 569,193.5C 568.517,195.537 567.684,197.537 566.5,199.5 Z"/></g>
<g><path style="opacity:0.004" fill="#000000" d="M -0.5,200.5 C 0.833333,201.167 0.833333,201.167 -0.5,200.5 Z"/></g>
<g><path style="opacity:0.863" fill="#647aae" d="M 566.5,199.5 C 567.684,197.537 568.517,195.537 569,193.5C 563.777,195.561 559.61,198.894 556.5,203.5C 558.685,203.296 560.685,202.63 562.5,201.5C 561.496,202.683 560.662,204.016 560,205.5C 557.973,205.014 555.807,205.014 553.5,205.5C 553.5,204.5 553.5,203.5 553.5,202.5C 554.209,201.596 555.209,201.263 556.5,201.5C 557.333,198.169 559.333,195.836 562.5,194.5C 564.8,192.798 567.467,192.132 570.5,192.5C 570.851,195.812 569.518,198.145 566.5,199.5 Z"/></g>
<g><path style="opacity:1" fill="#86aef5" d="M 88.5,201.5 C 99.9069,200.266 110.74,201.933 121,206.5C 122.011,205.663 123.178,205.33 124.5,205.5C 129.564,209.871 135.564,212.537 142.5,213.5C 144.735,213.795 146.735,213.461 148.5,212.5C 149.167,212.5 149.833,212.5 150.5,212.5C 152.199,212.34 153.866,212.506 155.5,213C 155.043,213.414 154.709,213.914 154.5,214.5C 156.585,216.575 158.419,216.575 160,214.5C 160.657,217.908 161.823,220.908 163.5,223.5C 162.245,225.519 161.911,227.519 162.5,229.5C 160.735,231.053 158.902,231.386 157,230.5C 157.077,231.738 156.911,232.738 156.5,233.5C 155.914,233.291 155.414,232.957 155,232.5C 154.355,229.441 153.522,226.441 152.5,223.5C 151.614,224.325 151.281,225.325 151.5,226.5C 147.298,226.183 143.298,226.517 139.5,227.5C 138.596,226.791 138.263,225.791 138.5,224.5C 134.73,224.135 131.397,222.802 128.5,220.5C 125.993,221.891 124.327,223.891 123.5,226.5C 121.194,226.993 118.861,227.326 116.5,227.5C 116.5,227.167 116.5,226.833 116.5,226.5C 119.483,225.53 121.149,223.863 121.5,221.5C 112.94,217.275 103.94,215.775 94.5,217C 89.4164,220.104 89.7497,222.937 95.5,225.5C 95.5,226.167 95.5,226.833 95.5,227.5C 93.2181,226.61 90.8848,226.444 88.5,227C 89.1667,228.333 89.8333,229.667 90.5,231C 85.5496,232.081 83.8829,234.915 85.5,239.5C 72.1782,231.692 69.3449,221.026 77,207.5C 80.2211,204.306 84.0544,202.306 88.5,201.5 Z M 116.5,226.5 C 109.43,228.716 102.43,228.383 95.5,225.5C 89.7497,222.937 89.4164,220.104 94.5,217C 103.94,215.775 112.94,217.275 121.5,221.5C 121.149,223.863 119.483,225.53 116.5,226.5 Z"/></g>
<g><path style="opacity:1" fill="#88b2fc" d="M 466.5,213.5 C 466.737,214.791 466.404,215.791 465.5,216.5C 464.732,217.263 464.232,218.263 464,219.5C 463.502,222.817 463.335,226.15 463.5,229.5C 465.484,229.617 467.15,228.95 468.5,227.5C 469.192,228.025 469.692,228.692 470,229.5C 471.294,228.146 471.46,226.812 470.5,225.5C 472.354,223.776 473.688,221.776 474.5,219.5C 475.476,220.815 476.476,222.148 477.5,223.5C 479.738,220.567 480.738,220.901 480.5,224.5C 481.552,224.351 482.552,224.517 483.5,225C 483.472,226.577 482.805,228.244 481.5,230C 481.528,231.07 481.861,231.903 482.5,232.5C 482.5,235.833 482.5,239.167 482.5,242.5C 475.137,242.274 467.804,242.607 460.5,243.5C 458.068,243.114 455.734,242.447 453.5,241.5C 453.047,240.542 452.381,239.708 451.5,239C 451.833,238.667 452.167,238.333 452.5,238C 451.058,237.623 450.058,236.79 449.5,235.5C 450.426,228.67 451.093,221.67 451.5,214.5C 453.574,212.285 453.907,209.785 452.5,207C 454.049,205.786 455.215,204.286 456,202.5C 456.308,203.308 456.808,203.975 457.5,204.5C 458.59,203.609 458.59,202.609 457.5,201.5C 459.961,199.26 462.627,198.927 465.5,200.5C 465.927,204.824 466.261,209.158 466.5,213.5 Z"/></g>
<g><path style="opacity:1" fill="#7190e7" d="M 397.5,200.5 C 398.833,200.5 400.167,200.5 401.5,200.5C 400.893,204.903 402.56,206.236 406.5,204.5C 407.735,205.34 408.735,206.34 409.5,207.5C 409.5,208.5 409.5,209.5 409.5,210.5C 406.597,218.237 402.763,218.237 398,210.5C 397.502,207.183 397.335,203.85 397.5,200.5 Z"/></g>
<g><path style="opacity:0.996" fill="#63799f" d="M 601.5,211.5 C 601.38,210.414 600.713,209.747 599.5,209.5C 595.805,208.914 592.138,208.247 588.5,207.5C 587.85,209.184 586.85,210.517 585.5,211.5C 585.578,208.509 586.912,206.509 589.5,205.5C 593.736,206.976 598.07,207.976 602.5,208.5C 602.737,209.791 602.404,210.791 601.5,211.5 Z"/></g>
<g><path style="opacity:1" fill="#7290e5" d="M 142.5,213.5 C 135.564,212.537 129.564,209.871 124.5,205.5C 125.376,205.631 126.043,205.298 126.5,204.5C 126.058,203.261 125.391,202.261 124.5,201.5C 124.369,200.624 124.702,199.957 125.5,199.5C 129.692,200.771 133.859,202.104 138,203.5C 138.945,203.095 139.612,202.428 140,201.5C 141.512,205.371 142.345,209.371 142.5,213.5 Z"/></g>
<g><path style="opacity:1" fill="#87b2fc" d="M 353.5,196.5 C 352.262,198.214 351.595,200.214 351.5,202.5C 350.5,202.5 349.5,202.5 348.5,202.5C 348.665,205.85 348.498,209.183 348,212.5C 346.431,213.938 344.931,215.438 343.5,217C 343.833,217.333 344.167,217.667 344.5,218C 343.57,219.194 342.903,220.527 342.5,222C 343.412,226.446 343.745,230.946 343.5,235.5C 344.822,235.67 345.989,235.337 347,234.5C 348.847,229.98 351.513,225.98 355,222.5C 357.498,217.824 359.164,212.824 360,207.5C 362.446,212.819 364.279,212.652 365.5,207C 365.167,206.667 364.833,206.333 364.5,206C 366.409,205.552 367.576,206.385 368,208.5C 371.047,205.197 372.214,205.197 371.5,208.5C 371.855,209.522 372.522,210.189 373.5,210.5C 372.669,216.156 371.835,221.823 371,227.5C 368.457,228.876 368.291,230.043 370.5,231C 369.809,232.067 369.309,233.234 369,234.5C 368.667,234.167 368.333,233.833 368,233.5C 367.261,234.574 366.261,235.241 365,235.5C 362.801,234.355 360.635,234.355 358.5,235.5C 357.245,237.78 355.245,238.947 352.5,239C 353.252,239.671 353.586,240.504 353.5,241.5C 350.871,240.871 349.204,239.205 348.5,236.5C 345.843,242.641 342.01,243.641 337,239.5C 336.329,240.252 335.496,240.586 334.5,240.5C 336.216,238.553 338.383,237.219 341,236.5C 341.977,234.26 342.477,231.927 342.5,229.5C 339.063,230.134 335.896,231.467 333,233.5C 332.598,232.128 332.098,230.795 331.5,229.5C 332.246,228.264 332.579,226.93 332.5,225.5C 333.5,225.5 334.5,225.5 335.5,225.5C 335.946,222.99 335.28,220.99 333.5,219.5C 334.278,213.888 335.611,208.388 337.5,203C 337.43,202.235 337.097,201.735 336.5,201.5C 338.252,197.757 339.252,193.757 339.5,189.5C 339.5,188.5 339.5,187.5 339.5,186.5C 341.913,185.32 342.913,183.32 342.5,180.5C 347.167,180.5 351.833,180.5 356.5,180.5C 356.245,183.016 355.411,185.35 354,187.5C 353.502,190.482 353.335,193.482 353.5,196.5 Z"/></g>
<g><path style="opacity:0.2" fill="#233452" d="M 143.5,206.5 C 144.451,207.919 144.784,209.585 144.5,211.5C 147.206,211.425 149.873,211.092 152.5,210.5C 151.833,211.167 151.167,211.833 150.5,212.5C 149.833,212.5 149.167,212.5 148.5,212.5C 146.833,212.5 145.167,212.5 143.5,212.5C 143.5,210.5 143.5,208.5 143.5,206.5 Z"/></g>
<g><path style="opacity:1" fill="#7490c5" d="M 481.5,187.5 C 480.636,198.613 478.302,209.28 474.5,219.5C 473.688,221.776 472.354,223.776 470.5,225.5C 471.46,226.812 471.294,228.146 470,229.5C 469.692,228.692 469.192,228.025 468.5,227.5C 467.15,228.95 465.484,229.617 463.5,229.5C 463.335,226.15 463.502,222.817 464,219.5C 464.232,218.263 464.732,217.263 465.5,216.5C 464.669,220.476 464.503,224.476 465,228.5C 467.487,226.191 469.487,223.524 471,220.5C 475.142,209.587 478.642,198.587 481.5,187.5 Z"/></g>
<g><path style="opacity:1" fill="#6077d5" d="M 336.5,201.5 C 337.097,201.735 337.43,202.235 337.5,203C 335.611,208.388 334.278,213.888 333.5,219.5C 332.077,223.267 330.744,227.101 329.5,231C 328.518,232.054 327.351,232.554 326,232.5C 325.658,230.182 326.158,228.015 327.5,226C 326.833,225.667 326.167,225.333 325.5,225C 327.351,222.471 328.685,219.638 329.5,216.5C 332.093,211.647 334.426,206.647 336.5,201.5 Z"/></g>
<g><path style="opacity:1" fill="#6882dd" d="M 565.5,180.5 C 565.918,181.222 566.584,181.722 567.5,182C 566.106,182.956 565.439,184.289 565.5,186C 565.943,187.825 566.277,189.658 566.5,191.5C 565.167,191.5 563.833,191.5 562.5,191.5C 562.5,192.5 562.5,193.5 562.5,194.5C 559.333,195.836 557.333,198.169 556.5,201.5C 555.209,201.263 554.209,201.596 553.5,202.5C 552.399,203.848 551.399,205.348 550.5,207C 552.797,207.018 555.131,206.851 557.5,206.5C 557.495,209.532 557.162,212.532 556.5,215.5C 557.554,218.801 558.054,222.135 558,225.5C 556.211,227.229 554.044,227.896 551.5,227.5C 552.167,229.833 552.833,232.167 553.5,234.5C 551.61,234.703 550.11,234.037 549,232.5C 547.545,228.589 546.378,224.589 545.5,220.5C 548.329,209.506 551.162,198.506 554,187.5C 556.071,185.563 558.238,183.896 560.5,182.5C 561.93,181.463 563.597,180.796 565.5,180.5 Z"/></g>
<g><path style="opacity:0.004" fill="#000000" d="M 200.5,221.5 C 201.833,222.167 201.833,222.167 200.5,221.5 Z"/></g>
<g><path style="opacity:1" fill="#6882de" d="M 209.5,219.5 C 211.878,215.376 213.878,211.042 215.5,206.5C 216.895,204.946 217.561,205.279 217.5,207.5C 214.908,215.294 213.408,223.294 213,231.5C 212,232.833 211,232.833 210,231.5C 209.501,227.514 209.334,223.514 209.5,219.5 Z"/></g>
<g><path style="opacity:1" fill="#6c89e1" d="M 451.5,214.5 C 451.093,221.67 450.426,228.67 449.5,235.5C 447.919,238.068 445.586,239.401 442.5,239.5C 442.98,236.315 442.314,233.481 440.5,231C 443.33,228.365 444.996,225.199 445.5,221.5C 447.017,221.489 448.184,220.823 449,219.5C 449.757,217.685 450.59,216.019 451.5,214.5 Z"/></g>
<g><path style="opacity:0.514" fill="#4f638a" d="M 95.5,225.5 C 102.43,228.383 109.43,228.716 116.5,226.5C 116.5,226.833 116.5,227.167 116.5,227.5C 109.519,229.641 102.519,229.641 95.5,227.5C 95.5,226.833 95.5,226.167 95.5,225.5 Z"/></g>
<g><path style="opacity:1" fill="#82aaf1" d="M 139.5,227.5 C 137.16,232.683 133.493,236.85 128.5,240C 115.477,246.409 102.144,247.075 88.5,242C 87.0577,241.623 86.0577,240.79 85.5,239.5C 83.8829,234.915 85.5496,232.081 90.5,231C 89.8333,229.667 89.1667,228.333 88.5,227C 90.8848,226.444 93.2181,226.61 95.5,227.5C 102.519,229.641 109.519,229.641 116.5,227.5C 118.861,227.326 121.194,226.993 123.5,226.5C 124.327,223.891 125.993,221.891 128.5,220.5C 131.397,222.802 134.73,224.135 138.5,224.5C 138.263,225.791 138.596,226.791 139.5,227.5 Z"/></g>
<g><path style="opacity:1" fill="#6a82d3" d="M 275.5,209.5 C 275.163,218.07 274.663,226.737 274,235.5C 273.005,236.066 272.172,236.733 271.5,237.5C 269.934,235.044 268.267,232.544 266.5,230C 268.329,228.887 269.163,227.387 269,225.5C 267.157,227.171 264.991,228.171 262.5,228.5C 265.917,226.144 268.751,223.144 271,219.5C 272.232,215.939 273.732,212.606 275.5,209.5 Z"/></g>
<g><path style="opacity:1" fill="#7292e7" d="M 401.5,229.5 C 399.615,231.053 398.615,233.053 398.5,235.5C 397.041,235.433 395.708,235.766 394.5,236.5C 393.417,236.461 392.417,236.127 391.5,235.5C 390.272,232.929 388.272,231.595 385.5,231.5C 385.95,227.091 388.283,224.091 392.5,222.5C 395.75,224.612 398.75,226.945 401.5,229.5 Z"/></g>
<g><path style="opacity:1" fill="#7b9df0" d="M 329.5,216.5 C 328.685,219.638 327.351,222.471 325.5,225C 326.167,225.333 326.833,225.667 327.5,226C 326.158,228.015 325.658,230.182 326,232.5C 327.351,232.554 328.518,232.054 329.5,231C 330.744,227.101 332.077,223.267 333.5,219.5C 335.28,220.99 335.946,222.99 335.5,225.5C 334.5,225.5 333.5,225.5 332.5,225.5C 332.579,226.93 332.246,228.264 331.5,229.5C 332.098,230.795 332.598,232.128 333,233.5C 335.896,231.467 339.063,230.134 342.5,229.5C 342.477,231.927 341.977,234.26 341,236.5C 338.383,237.219 336.216,238.553 334.5,240.5C 331.833,241.5 329.167,242.5 326.5,243.5C 326.56,239.673 325.393,239.006 323,241.5C 321.542,240.253 320.042,240.253 318.5,241.5C 317.605,238.625 317.938,235.792 319.5,233C 318.586,231.594 317.92,230.094 317.5,228.5C 322.475,225.525 326.475,221.525 329.5,216.5 Z"/></g>
<g><path style="opacity:0.004" fill="#000000" d="M 665.5,236.5 C 666.833,237.167 666.833,237.167 665.5,236.5 Z"/></g>
<g><path style="opacity:0.722" fill="#687ca6" d="M 401.5,229.5 C 403.099,229.232 404.432,229.566 405.5,230.5C 401.738,234.083 397.738,237.583 393.5,241C 389.732,243.056 385.732,244.222 381.5,244.5C 384.807,242.766 388.307,241.099 392,239.5C 393.31,238.87 394.144,237.87 394.5,236.5C 395.708,235.766 397.041,235.433 398.5,235.5C 398.615,233.053 399.615,231.053 401.5,229.5 Z"/></g>
<g><path style="opacity:1" fill="#84adf3" d="M 353.5,241.5 C 353.5,241.833 353.5,242.167 353.5,242.5C 348.158,246.479 342.491,250.145 336.5,253.5C 335.873,254.417 335.539,255.417 335.5,256.5C 334.609,257.11 333.609,257.443 332.5,257.5C 333.242,255.574 334.242,253.741 335.5,252C 328.245,252.878 322.079,256.045 317,261.5C 316.51,262.793 316.343,264.127 316.5,265.5C 318.591,265.318 320.591,265.652 322.5,266.5C 324.62,263.706 327.287,261.706 330.5,260.5C 329.85,262.435 329.517,264.435 329.5,266.5C 326.53,266.746 325.197,268.412 325.5,271.5C 324.167,271.5 322.833,271.5 321.5,271.5C 321.5,273.833 321.5,276.167 321.5,278.5C 317.171,282.668 312.171,285.834 306.5,288C 297.207,290.392 289.373,288.225 283,281.5C 278.798,269.13 282.631,259.963 294.5,254C 299.752,251.538 305.085,249.371 310.5,247.5C 313.691,247.662 316.358,246.662 318.5,244.5C 318.833,244.5 319.167,244.5 319.5,244.5C 321.257,244.993 323.091,245.327 325,245.5C 325.717,244.956 326.217,244.289 326.5,243.5C 329.167,242.5 331.833,241.5 334.5,240.5C 335.496,240.586 336.329,240.252 337,239.5C 342.01,243.641 345.843,242.641 348.5,236.5C 349.204,239.205 350.871,240.871 353.5,241.5 Z M 310.5,262.5 C 311.873,262.343 313.207,262.51 314.5,263C 311.074,268.424 306.24,271.924 300,273.5C 298.596,273.491 297.43,272.991 296.5,272C 297.833,270.667 299.167,269.333 300.5,268C 304.168,266.624 307.501,264.791 310.5,262.5 Z"/></g>
<g><path style="opacity:0.38" fill="#6e88ba" d="M 544.5,230.5 C 543.344,234.793 542.344,239.126 541.5,243.5C 533.895,243.11 526.395,243.777 519,245.5C 516.889,245.299 515.055,244.633 513.5,243.5C 522.491,242.959 531.491,242.626 540.5,242.5C 540.336,239.813 540.503,237.146 541,234.5C 541.498,232.456 542.665,231.122 544.5,230.5 Z"/></g>
<g><path style="opacity:0.624" fill="#708ab7" d="M 490.5,216.5 C 488.17,225.159 485.836,233.826 483.5,242.5C 476.271,243.126 469.104,244.126 462,245.5C 458.571,245.202 455.737,243.869 453.5,241.5C 455.734,242.447 458.068,243.114 460.5,243.5C 467.804,242.607 475.137,242.274 482.5,242.5C 482.5,239.167 482.5,235.833 482.5,232.5C 483.117,232.611 483.617,232.944 484,233.5C 486.137,229.087 487.47,224.42 488,219.5C 488.852,218.429 489.685,217.429 490.5,216.5 Z"/></g>
<g><path style="opacity:0.004" fill="#000000" d="M 533.5,246.5 C 534.833,247.167 534.833,247.167 533.5,246.5 Z"/></g>
<g><path style="opacity:0.004" fill="#000000" d="M 362.5,256.5 C 363.833,257.167 363.833,257.167 362.5,256.5 Z"/></g>
<g><path style="opacity:1" fill="#7493ea" d="M 332.5,257.5 C 332.573,259.027 331.906,260.027 330.5,260.5C 327.287,261.706 324.62,263.706 322.5,266.5C 320.591,265.652 318.591,265.318 316.5,265.5C 316.343,264.127 316.51,262.793 317,261.5C 322.079,256.045 328.245,252.878 335.5,252C 334.242,253.741 333.242,255.574 332.5,257.5 Z"/></g>
<g><path style="opacity:0.004" fill="#000000" d="M 35.5,264.5 C 36.8333,265.167 36.8333,265.167 35.5,264.5 Z"/></g>
<g><path style="opacity:0.004" fill="#000000" d="M 578.5,269.5 C 579.833,270.167 579.833,270.167 578.5,269.5 Z"/></g>
<g><path style="opacity:0.004" fill="#000000" d="M 152.5,270.5 C 153.833,271.167 153.833,271.167 152.5,270.5 Z"/></g>
<g><path style="opacity:0.004" fill="#000000" d="M 155.5,271.5 C 156.833,272.167 156.833,272.167 155.5,271.5 Z"/></g>
<g><path style="opacity:1" fill="#6b82b7" d="M 335.5,256.5 C 332.328,264.858 327.662,272.191 321.5,278.5C 321.5,276.167 321.5,273.833 321.5,271.5C 322.833,271.5 324.167,271.5 325.5,271.5C 325.197,268.412 326.53,266.746 329.5,266.5C 329.517,264.435 329.85,262.435 330.5,260.5C 331.906,260.027 332.573,259.027 332.5,257.5C 333.609,257.443 334.609,257.11 335.5,256.5 Z"/></g>
<g><path style="opacity:0.004" fill="#000000" d="M 488.5,273.5 C 489.833,274.167 489.833,274.167 488.5,273.5 Z"/></g>
<g><path style="opacity:0.004" fill="#000000" d="M 635.5,273.5 C 636.833,274.167 636.833,274.167 635.5,273.5 Z"/></g>
<g><path style="opacity:0.004" fill="#000000" d="M 212.5,274.5 C 213.833,275.167 213.833,275.167 212.5,274.5 Z"/></g>
<g><path style="opacity:0.004" fill="#000000" d="M 659.5,277.5 C 660.833,278.167 660.833,278.167 659.5,277.5 Z"/></g>
<g><path style="opacity:0.004" fill="#000000" d="M 593.5,289.5 C 594.833,290.167 594.833,290.167 593.5,289.5 Z"/></g>
<g><path style="opacity:0.004" fill="#000000" d="M 293.5,293.5 C 294.833,294.167 294.833,294.167 293.5,293.5 Z"/></g>
<g><path style="opacity:0.004" fill="#000000" d="M 512.5,296.5 C 513.833,297.167 513.833,297.167 512.5,296.5 Z"/></g>
<g><path style="opacity:0.004" fill="#000000" d="M 293.5,298.5 C 294.833,299.167 294.833,299.167 293.5,298.5 Z"/></g>
<g><path style="opacity:0.004" fill="#000000" d="M 281.5,304.5 C 282.833,305.167 282.833,305.167 281.5,304.5 Z"/></g>
<g><path style="opacity:0.004" fill="#000000" d="M 434.5,304.5 C 435.833,305.167 435.833,305.167 434.5,304.5 Z"/></g>
<g><path style="opacity:0.004" fill="#000000" d="M 527.5,309.5 C 528.833,310.167 528.833,310.167 527.5,309.5 Z"/></g>
<g><path style="opacity:0.004" fill="#000000" d="M 272.5,319.5 C 273.833,320.167 273.833,320.167 272.5,319.5 Z"/></g>
<g><path style="opacity:0.004" fill="#000000" d="M 614.5,320.5 C 615.833,321.167 615.833,321.167 614.5,320.5 Z"/></g>
<g><path style="opacity:0.004" fill="#000000" d="M 206.5,322.5 C 207.833,323.167 207.833,323.167 206.5,322.5 Z"/></g>
<g><path style="opacity:0.004" fill="#000000" d="M 569.5,323.5 C 570.833,324.167 570.833,324.167 569.5,323.5 Z"/></g>
<g><path style="opacity:0.004" fill="#000000" d="M 5.5,325.5 C 6.83333,326.167 6.83333,326.167 5.5,325.5 Z"/></g>
<g><path style="opacity:0.004" fill="#000000" d="M 377.5,325.5 C 378.833,326.167 378.833,326.167 377.5,325.5 Z"/></g>
<g><path style="opacity:0.004" fill="#000000" d="M 29.5,327.5 C 30.8333,328.167 30.8333,328.167 29.5,327.5 Z"/></g>
<g><path style="opacity:0.004" fill="#000000" d="M 512.5,328.5 C 513.833,329.167 513.833,329.167 512.5,328.5 Z"/></g>
<g><path style="opacity:0.004" fill="#000000" d="M 35.5,329.5 C 36.8333,330.167 36.8333,330.167 35.5,329.5 Z"/></g>
<g><path style="opacity:0.004" fill="#000000" d="M 263.5,337.5 C 264.833,338.167 264.833,338.167 263.5,337.5 Z"/></g>
<g><path style="opacity:0.004" fill="#000000" d="M 539.5,341.5 C 540.833,342.167 540.833,342.167 539.5,341.5 Z"/></g>
<g><path style="opacity:0.004" fill="#000000" d="M 95.5,345.5 C 96.8333,346.167 96.8333,346.167 95.5,345.5 Z"/></g>
<g><path style="opacity:0.004" fill="#000000" d="M 188.5,345.5 C 189.833,346.167 189.833,346.167 188.5,345.5 Z"/></g>
<g><path style="opacity:0.004" fill="#000000" d="M 14.5,346.5 C 15.8333,347.167 15.8333,347.167 14.5,346.5 Z"/></g>
<g><path style="opacity:0.004" fill="#000000" d="M 491.5,346.5 C 492.833,347.167 492.833,347.167 491.5,346.5 Z"/></g>
<g><path style="opacity:0.004" fill="#000000" d="M 200.5,347.5 C 201.833,348.167 201.833,348.167 200.5,347.5 Z"/></g>
<g><path style="opacity:0.004" fill="#000000" d="M 347.5,355.5 C 348.833,356.167 348.833,356.167 347.5,355.5 Z"/></g>
<g><path style="opacity:0.004" fill="#000000" d="M 8.5,356.5 C 9.83333,357.167 9.83333,357.167 8.5,356.5 Z"/></g>
<g><path style="opacity:0.004" fill="#000000" d="M 167.5,360.5 C 168.833,361.167 168.833,361.167 167.5,360.5 Z"/></g>
</svg>
